<?xml version="1.0" standalone="no"?>
<!DOCTYPE svg PUBLIC "-//W3C//DTD SVG 20010904//EN"
 "http://www.w3.org/TR/2001/REC-SVG-20010904/DTD/svg10.dtd">
<svg version="1.0" xmlns="http://www.w3.org/2000/svg"
 width="640.000000pt" height="240.000000pt" viewBox="0 0 640.000000 240.000000"
 preserveAspectRatio="xMidYMid meet">

<g transform="translate(0.000000,240.000000) scale(0.100000,-0.100000)"
fill="#000" stroke="none">
<path d="M1050 2149 c-30 -5 -66 -11 -80 -13 -14 -1 -32 -5 -40 -8 -8 -3 -49
-15 -90 -28 -102 -31 -246 -105 -320 -165 -46 -37 -156 -150 -196 -200 -21
-27 -42 -51 -46 -53 -5 -2 -8 -8 -8 -14 0 -5 -11 -24 -24 -41 -32 -43 -81
-184 -96 -279 -17 -106 -8 -302 19 -402 48 -180 162 -361 314 -499 132 -120
210 -167 353 -212 163 -53 366 -58 534 -15 102 27 261 104 344 168 78 60 206
190 206 209 0 4 9 16 19 27 29 31 107 193 124 256 37 142 48 300 27 392 -5 24
-19 87 -30 140 -37 172 -162 388 -291 501 -213 188 -479 275 -719 236z m312
-195 c27 -8 28 -29 8 -126 -11 -51 -44 -237 -75 -413 -30 -176 -58 -332 -61
-347 l-6 -28 186 0 c218 0 212 3 191 -99 -7 -35 -17 -67 -21 -71 -10 -9 -591
-41 -610 -33 -21 8 -21 34 -3 103 9 36 51 207 94 380 42 173 83 344 92 378 8
35 11 67 7 72 -11 10 -286 30 -296 21 -4 -3 -14 -31 -22 -61 -8 -30 -47 -174
-86 -320 -73 -271 -118 -437 -146 -548 -29 -110 -54 -102 -138 43 l-45 80 78
295 c109 407 140 526 157 590 8 30 19 66 24 79 l10 23 323 -7 c177 -4 329 -9
339 -11z m-334 -232 c18 -23 13 -64 -41 -297 -110 -475 -137 -599 -137 -620 0
-48 10 -49 308 -36 152 6 319 14 370 17 127 9 138 19 163 145 34 176 42 169
-193 169 l-181 0 6 37 c10 62 35 77 135 85 48 3 138 7 200 7 165 1 156 18 148
-278 -4 -134 -12 -245 -18 -258 -6 -12 -22 -26 -37 -32 -14 -5 -125 -12 -246
-15 -121 -4 -351 -11 -512 -17 -309 -11 -333 -9 -333 32 0 25 7 56 151 638 60
243 111 447 114 451 8 13 89 -9 103 -28z"/>
<path d="M716 1923 c-3 -10 -26 -97 -51 -193 -25 -96 -54 -204 -64 -240 -10
-36 -31 -112 -46 -170 -15 -58 -38 -143 -50 -190 -41 -153 -42 -140 12 -230
38 -64 50 -77 56 -63 4 10 65 236 136 501 72 266 131 486 133 488 7 6 347 -19
360 -27 8 -5 -1 -55 -31 -181 -104 -422 -181 -742 -181 -749 0 -5 12 -6 28 -4
15 3 144 9 287 15 143 6 260 12 261 13 1 1 5 28 9 60 l7 58 -193 -2 -194 -2 3
24 c2 13 37 217 78 452 42 236 74 431 71 433 -3 3 -501 23 -599 24 -17 0 -29
-6 -32 -17z"/>
<path d="M2380 1942 c0 -4 6 -14 13 -21 17 -17 13 -140 -12 -336 -12 -88 -24
-176 -27 -196 -6 -35 -5 -36 33 -42 53 -9 336 -8 349 1 9 6 54 164 54 191 0 5
-17 0 -37 -10 -44 -23 -173 -27 -173 -6 0 6 7 89 16 182 12 125 21 179 35 203
11 18 19 35 19 38 0 2 -61 4 -135 4 -74 0 -135 -4 -135 -8z"/>
<path d="M4925 1790 c-44 -3 -92 -12 -108 -20 -39 -19 -67 -69 -67 -119 0 -51
18 -81 71 -116 46 -30 48 -55 7 -66 -18 -5 -36 -1 -57 12 -17 10 -34 19 -36
19 -3 0 -5 -33 -5 -74 l0 -73 80 -7 c67 -6 86 -4 124 13 58 25 86 69 86 134 0
45 -4 52 -50 99 -70 71 -64 113 12 74 15 -8 29 -12 32 -8 9 8 7 142 -1 140 -5
-1 -44 -4 -88 -8z"/>
<path d="M2886 1743 c8 -71 -22 -338 -42 -368 l-16 -25 155 0 c86 0 158 4 161
9 3 4 9 34 12 66 5 42 4 56 -4 51 -6 -4 -39 -9 -72 -12 l-61 -5 3 28 c3 24 8
28 38 29 19 1 43 -2 54 -8 26 -14 33 -2 39 68 l6 62 -64 -6 -65 -5 0 28 0 28
74 -6 74 -5 -2 46 c-1 26 -5 53 -9 60 -6 9 -47 12 -147 12 l-139 0 5 -47z"/>
<path d="M3287 1765 c-20 -14 -37 -30 -37 -35 0 -11 0 -11 -11 -60 -13 -54 6
-95 57 -131 28 -19 44 -37 42 -47 -4 -23 -54 -27 -85 -7 -13 9 -26 15 -28 13
-1 -2 -5 -34 -8 -71 -5 -66 -4 -69 20 -78 41 -15 145 -11 183 9 52 26 80 74
80 139 0 52 -2 55 -56 106 -50 49 -54 55 -39 67 15 12 21 12 47 -3 16 -9 34
-17 39 -17 5 0 9 32 9 70 l0 70 -88 0 c-77 0 -92 -3 -125 -25z"/>
<path d="M4010 1781 c0 -5 5 -22 10 -37 13 -34 -16 -329 -36 -360 -7 -12 -10
-24 -7 -28 4 -3 46 -6 95 -6 l88 0 -6 40 c-9 56 15 318 32 354 8 16 14 32 14
36 0 4 -43 8 -95 9 -56 1 -95 -2 -95 -8z"/>
<path d="M4270 1777 c0 -7 5 -18 11 -24 7 -7 5 -56 -6 -164 -18 -177 -22 -194
-41 -210 -28 -23 -12 -29 82 -29 l97 0 -7 32 c-3 17 -3 60 0 96 l7 64 47 -94
48 -93 82 -3 82 -3 -6 28 c-8 36 20 347 34 372 5 11 10 22 10 25 0 3 -43 6
-95 6 -52 0 -95 -2 -95 -5 0 -3 6 -16 13 -28 10 -15 12 -41 8 -87 l-6 -65 -55
95 -55 95 -78 3 c-59 2 -77 0 -77 -11z"/>
<path d="M5105 1780 c-3 -5 -2 -18 3 -27 13 -25 -13 -312 -32 -357 l-15 -36
92 0 93 0 -4 65 c-5 69 3 115 18 115 5 0 19 -33 31 -72 32 -107 45 -118 142
-118 43 0 77 3 75 8 -41 92 -97 194 -119 218 l-29 30 85 86 c47 48 85 89 85
93 0 3 -39 4 -87 3 l-87 -3 -8 -30 c-4 -17 -26 -48 -48 -70 l-40 -39 0 34 c0
19 7 48 15 64 8 15 15 32 15 37 0 12 -177 11 -185 -1z"/>
<path d="M5625 1768 c16 -49 17 -107 5 -199 -7 -53 -10 -108 -6 -123 18 -74
124 -105 205 -60 24 13 46 23 48 20 2 -2 -3 -22 -12 -44 -13 -31 -23 -41 -47
-46 -17 -3 -808 -6 -1759 -6 l-1729 0 0 -70 0 -70 1770 0 c1976 0 1820 -6
1891 71 22 23 40 54 44 76 10 55 43 457 38 466 -2 4 -45 7 -95 7 -89 0 -90 0
-82 -22 9 -26 9 -156 0 -193 -8 -33 -33 -55 -62 -55 -33 0 -38 28 -26 152 5
57 8 106 5 111 -2 4 -47 7 -100 7 -94 0 -95 0 -88 -22z"/>
<path d="M3584 1753 c-3 -16 -10 -45 -16 -67 -5 -21 -7 -40 -5 -42 2 -2 17 2
33 10 49 23 81 27 87 11 11 -26 -19 -253 -36 -279 l-16 -24 72 -7 c91 -9 123
-4 118 15 -20 81 -15 236 10 282 9 17 18 19 52 15 23 -3 43 -11 45 -16 2 -6
10 -11 18 -11 10 0 14 14 14 54 0 91 12 86 -191 86 l-179 0 -6 -27z"/>
<path d="M2414 1038 c-10 -16 -94 -321 -94 -340 0 -15 9 -18 44 -18 38 0 45 3
50 25 6 22 12 25 50 25 39 0 45 -3 48 -22 3 -20 10 -23 56 -26 48 -3 53 -1 48
15 -3 10 -26 90 -51 177 -25 88 -47 162 -50 164 -10 11 -95 11 -101 0z m65
-200 c1 -12 -6 -18 -20 -18 -21 0 -21 -1 -1 65 5 18 6 18 13 -5 4 -14 7 -33 8
-42z"/>
<path d="M2637 1044 c-4 -4 -7 -64 -7 -133 0 -184 28 -231 138 -231 97 0 123
44 130 223 5 144 4 147 -60 147 l-38 0 0 -123 c0 -127 -6 -147 -42 -147 -27 0
-31 19 -32 148 l-1 117 -40 3 c-23 2 -44 0 -48 -4z"/>
<path d="M3010 1027 c-53 -35 -75 -81 -75 -157 0 -123 54 -190 153 -190 39 0
57 5 77 23 24 21 24 24 13 62 -6 22 -12 41 -13 43 -1 1 -16 -5 -33 -14 -56
-27 -102 3 -102 67 0 22 4 49 10 59 14 26 55 33 90 15 l29 -15 11 41 c14 50 8
66 -25 79 -44 17 -100 12 -135 -13z"/>
<path d="M3200 1000 l0 -50 35 0 35 0 0 -135 0 -135 45 0 45 0 0 135 0 135 35
0 c35 0 35 0 35 44 0 31 -5 46 -16 50 -9 3 -60 6 -115 6 l-99 0 0 -50z"/>
<path d="M3467 1044 c-4 -4 -7 -88 -7 -186 l0 -178 45 0 c25 0 46 3 46 8 6 36
7 352 1 352 -4 1 -23 3 -42 6 -20 3 -39 2 -43 -2z"/>
<path d="M3680 1032 c-52 -28 -82 -89 -82 -167 0 -116 58 -185 155 -185 64 0
109 29 138 88 31 63 23 167 -16 218 -48 62 -128 81 -195 46z m112 -99 c37 -42
23 -134 -22 -148 -51 -16 -93 44 -76 109 13 53 67 74 98 39z"/>
<path d="M3963 1043 c-10 -3 -13 -50 -13 -184 l0 -179 45 0 44 0 3 97 3 97 40
-94 41 -95 49 0 50 0 3 177 2 178 -25 6 c-14 3 -37 3 -51 0 -25 -7 -25 -8 -22
-91 2 -47 0 -85 -3 -85 -3 0 -21 37 -39 83 -19 45 -39 85 -44 89 -12 9 -64 9
-83 1z"/>
<path d="M4293 1043 c-10 -3 -13 -50 -13 -184 l0 -179 106 0 105 0 -3 48 -3
47 -55 0 c-48 0 -55 3 -55 20 0 17 8 20 53 23 l52 3 0 45 0 44 -55 0 c-48 0
-55 2 -55 20 0 18 7 20 55 20 l55 0 0 50 0 50 -87 -1 c-49 0 -94 -3 -100 -6z"/>
<path d="M4543 1044 c-10 -4 -13 -51 -13 -185 l0 -179 105 0 105 0 0 45 c0 39
-3 45 -25 51 -14 3 -39 4 -55 2 -26 -4 -30 -1 -30 19 0 21 4 23 50 23 l50 0 0
45 0 45 -49 0 c-40 0 -50 4 -54 20 -4 17 1 19 52 22 l56 3 0 45 0 45 -90 2
c-49 1 -96 -1 -102 -3z"/>
<path d="M4798 1044 c-5 -4 -8 -88 -8 -186 l0 -178 45 0 45 0 0 60 c0 33 3 60
8 60 4 0 16 -26 28 -57 l20 -58 52 -3 c31 -2 52 1 52 7 0 6 -12 35 -27 66
l-27 55 22 39 c37 65 23 154 -29 182 -26 13 -171 24 -181 13z m131 -101 c12
-23 -4 -53 -29 -53 -16 0 -20 7 -20 35 0 28 4 35 20 35 10 0 23 -8 29 -17z"/>
<path d="M5123 1040 c-29 -12 -63 -67 -63 -101 0 -58 20 -87 76 -115 30 -14
54 -30 54 -34 0 -19 -35 -19 -66 0 l-33 21 -21 -40 c-11 -22 -20 -43 -20 -46
0 -15 70 -45 107 -45 83 0 123 41 123 128 0 43 -4 54 -29 74 -15 14 -42 30
-60 37 -32 14 -43 41 -16 41 9 0 29 -7 46 -15 30 -16 30 -16 44 19 20 48 20
50 -20 69 -39 18 -87 21 -122 7z"/>
<path d="M5423 1043 c-10 -4 -13 -49 -13 -184 l0 -179 95 0 95 0 0 50 0 50
-50 0 -49 0 -3 132 -3 132 -30 2 c-16 0 -36 -1 -42 -3z"/>
<path d="M5645 1042 c-3 -3 -5 -86 -5 -184 l0 -178 95 0 95 0 0 50 0 50 -50 0
-49 0 -3 133 -3 132 -37 1 c-21 1 -40 -1 -43 -4z"/>
<path d="M5935 1041 c-116 -48 -129 -274 -21 -341 45 -27 124 -27 159 0 23 18
24 23 15 58 -14 53 -16 54 -50 36 -43 -22 -76 -11 -94 32 -19 45 -7 94 28 114
24 13 30 13 61 -2 l35 -17 6 27 c3 15 8 37 12 50 5 18 1 24 -30 37 -38 16 -89
19 -121 6z"/>
<path d="M2290 490 l0 -70 44 0 c36 0 44 3 42 17 -2 10 -11 18 -22 18 -16 0
-19 9 -22 53 -3 44 -6 52 -23 52 -17 0 -19 -7 -19 -70z"/>
<path d="M2407 549 c-47 -28 -36 -120 16 -133 38 -9 75 9 83 40 l7 27 14 -27
c24 -46 103 -58 103 -15 0 14 -7 19 -29 19 -32 0 -48 24 -30 47 7 7 21 12 33
11 15 -2 21 2 21 17 0 15 -8 21 -31 23 -25 2 -37 -3 -58 -28 -16 -20 -26 -26
-26 -16 0 35 -65 57 -103 35z m58 -59 c0 -18 -6 -26 -22 -28 -18 -3 -23 1 -23
21 0 28 9 39 30 35 9 -2 15 -14 15 -28z"/>
<path d="M2666 503 c-10 -32 -21 -64 -23 -70 -3 -7 2 -13 11 -13 9 0 26 6 37
13 17 10 23 10 26 0 5 -14 53 -18 53 -5 0 4 -9 36 -21 70 -17 51 -25 62 -43
62 -18 0 -26 -10 -40 -57z"/>
<path d="M2787 554 c-4 -4 -7 -36 -7 -71 l0 -63 46 0 c38 0 45 3 42 17 -2 10
-12 18 -23 18 -17 0 -20 7 -20 50 0 37 -4 50 -15 53 -9 1 -19 0 -23 -4z"/>
<path d="M2945 548 c-3 -7 -14 -39 -24 -70 l-20 -58 24 0 c13 0 25 5 27 11 3
9 9 9 25 0 12 -6 31 -11 42 -11 19 0 19 1 -3 68 -18 52 -27 68 -44 70 -12 2
-24 -3 -27 -10z m30 -68 c3 -5 1 -10 -4 -10 -6 0 -11 5 -11 10 0 6 2 10 4 10
3 0 8 -4 11 -10z"/>
<path d="M3040 507 c0 -66 16 -90 60 -90 45 0 62 25 58 88 -3 42 -6 50 -23 50
-17 0 -20 -8 -23 -52 -2 -41 -6 -51 -18 -46 -9 3 -14 21 -14 54 0 42 -3 49
-20 49 -17 0 -20 -7 -20 -53z"/>
<path d="M3188 538 c-38 -38 -14 -115 38 -119 40 -4 54 1 54 20 0 15 -8 21
-32 23 -28 2 -33 7 -33 28 0 21 4 25 28 23 15 -1 27 2 27 7 0 4 9 6 20 3 17
-4 20 -14 20 -54 0 -45 2 -49 24 -49 21 0 23 4 20 42 -3 32 1 46 16 60 11 11
18 23 15 28 -3 5 -45 9 -92 8 -69 -1 -90 -5 -105 -20z"/>
<path d="M3399 528 c-5 -102 -4 -103 19 -106 21 -3 22 0 22 67 0 64 -2 71 -20
71 -16 0 -20 -7 -21 -32z"/>
<path d="M3475 535 c-29 -28 -32 -65 -7 -93 43 -52 122 -24 122 44 0 68 -68
97 -115 49z m70 -45 c0 -16 -6 -26 -19 -28 -25 -5 -39 12 -31 38 10 31 50 24
50 -10z"/>
<path d="M3607 553 c-4 -3 -7 -35 -7 -70 0 -55 2 -63 19 -63 21 0 33 22 25 45
-11 27 5 16 21 -15 11 -21 23 -30 41 -30 24 0 25 1 22 68 -3 59 -5 67 -23 67
-14 0 -21 -9 -25 -30 l-6 -30 -11 33 c-11 30 -39 43 -56 25z"/>
<path d="M3747 554 c-4 -4 -7 -36 -7 -71 l0 -63 50 0 c38 0 50 4 50 15 0 9 -9
15 -25 15 -14 0 -25 5 -25 10 0 6 9 10 20 10 29 0 27 37 -2 43 -19 4 -18 5 5
6 21 1 28 5 25 19 -2 12 -14 18 -43 20 -23 2 -44 0 -48 -4z"/>
<path d="M3850 490 l0 -70 44 0 c30 0 46 5 50 15 4 11 -1 15 -19 15 -13 0 -27
5 -30 10 -4 6 5 10 20 10 34 0 30 31 -5 41 l-25 7 28 1 c20 1 27 6 27 21 0 17
-7 20 -45 20 l-45 0 0 -70z"/>
<path d="M3960 490 c0 -62 2 -70 19 -70 12 0 21 8 24 23 l4 22 8 -22 c6 -18
15 -23 44 -22 20 0 43 -1 51 -2 71 -10 92 63 27 91 -21 10 -21 10 3 7 16 -1
26 4 28 15 4 22 -38 34 -68 18 -28 -15 -24 -61 8 -75 30 -13 28 -27 -3 -19
-15 4 -25 2 -25 -5 0 -17 -17 -13 -24 6 -4 9 -2 21 4 27 30 30 -10 76 -67 76
l-33 0 0 -70z m60 20 c0 -5 -4 -10 -10 -10 -5 0 -10 5 -10 10 0 6 5 10 10 10
6 0 10 -4 10 -10z"/>
<path d="M4380 543 c0 -10 6 -40 13 -68 11 -43 17 -50 38 -50 18 0 25 7 30 30
l6 30 8 -32 c6 -26 13 -33 31 -33 24 0 32 18 50 108 6 28 4 32 -14 32 -15 0
-22 -10 -29 -37 l-9 -38 -8 38 c-9 49 -41 52 -54 5 l-8 -33 -12 33 c-12 34
-42 45 -42 15z"/>
<path d="M4585 535 c-46 -45 -19 -118 43 -118 43 0 72 28 72 70 0 67 -68 96
-115 48z m70 -45 c0 -18 -6 -26 -21 -28 -26 -4 -40 24 -23 45 18 21 44 11 44
-17z"/>
<path d="M4717 553 c-4 -3 -7 -35 -7 -70 0 -61 1 -63 25 -63 19 0 25 5 26 23
l0 22 9 -22 c7 -16 18 -23 36 -23 21 0 24 3 15 14 -7 9 -9 29 -5 56 6 35 4 45
-11 57 -20 14 -77 18 -88 6z m63 -43 c0 -5 -4 -10 -10 -10 -5 0 -10 5 -10 10
0 6 5 10 10 10 6 0 10 -4 10 -10z"/>
<path d="M4840 490 l0 -70 40 0 c29 0 40 4 40 15 0 8 -9 15 -20 15 -18 0 -20
7 -20 55 0 48 -2 55 -20 55 -18 0 -20 -7 -20 -70z"/>
<path d="M4930 491 l0 -71 44 0 c55 0 76 19 76 69 0 47 -16 62 -75 69 l-45 5
0 -72z m78 -5 c3 -22 0 -27 -14 -24 -17 3 -28 34 -17 50 10 17 28 1 31 -26z"/>
<path d="M5140 553 c-43 -15 -55 -87 -20 -118 29 -26 79 -24 102 4 46 58 -12
139 -82 114z m48 -50 c12 -24 4 -43 -18 -43 -24 0 -33 15 -25 40 8 25 31 26
43 3z"/>
<path d="M5250 491 c0 -64 2 -71 20 -71 13 0 20 7 20 19 0 13 8 21 23 23 12 2
22 10 22 18 0 8 -10 16 -22 18 -32 5 -29 22 3 22 19 0 25 5 22 18 -2 12 -15
18 -46 20 l-42 3 0 -70z"/>
<path d="M5397 539 c-14 -19 -12 -59 2 -59 4 0 16 -7 27 -15 18 -15 18 -15 -7
-9 -36 8 -49 -23 -15 -36 32 -12 64 -2 71 21 4 11 11 17 16 13 6 -3 8 -12 5
-20 -4 -11 6 -14 44 -14 38 0 50 4 50 15 0 9 -9 15 -25 15 -14 0 -25 5 -25 10
0 6 9 10 20 10 29 0 27 37 -2 43 -19 4 -18 5 5 6 21 1 28 5 25 19 -3 13 -13
17 -48 17 -48 0 -46 2 -49 -64 -1 -22 -3 -23 -13 -9 -7 8 -22 21 -33 27 -19
12 -19 12 2 8 14 -3 24 1 28 11 13 34 -55 44 -78 11z"/>
<path d="M5608 554 c-5 -4 -8 -36 -8 -71 0 -56 2 -63 20 -63 14 0 20 7 21 23
l0 22 16 -22 c19 -28 59 -32 48 -5 -8 19 -8 26 0 62 3 14 2 31 -3 38 -10 15
-83 28 -94 16z m62 -44 c0 -5 -7 -10 -15 -10 -8 0 -15 5 -15 10 0 6 7 10 15
10 8 0 15 -4 15 -10z"/>
<path d="M5712 548 c3 -7 14 -39 24 -70 14 -47 22 -58 39 -58 18 0 27 12 44
56 26 69 26 84 1 84 -11 0 -20 -4 -20 -9 0 -5 -5 -22 -11 -38 l-11 -28 -13 35
c-8 24 -19 36 -35 38 -16 3 -21 0 -18 -10z"/>
<path d="M5857 554 c-4 -4 -7 -36 -7 -71 0 -61 1 -63 25 -63 26 0 26 1 23 67
-2 52 -7 68 -18 71 -9 1 -19 0 -23 -4z"/>
<path d="M5930 540 c-25 -25 -26 -81 -2 -103 18 -16 40 -22 75 -19 30 3 16 36
-18 42 -24 4 -30 10 -30 30 0 20 5 25 25 25 30 0 49 23 29 36 -24 15 -58 10
-79 -11z"/>
<path d="M6037 554 c-4 -4 -7 -36 -7 -71 l0 -63 50 0 c38 0 50 4 50 15 0 9 -9
15 -25 15 -14 0 -25 5 -25 10 0 6 9 10 20 10 30 0 27 40 -2 41 -22 1 -22 1 2
8 41 11 31 36 -15 39 -23 2 -44 0 -48 -4z"/>
<path d="M4256 515 c-9 -9 -16 -20 -16 -25 0 -14 31 -41 43 -37 21 7 32 36 21
54 -15 24 -29 26 -48 8z"/>
</g>
</svg>
